<svg width="12" height="12" viewBox="0 0 12 12" fill="none" xmlns="http://www.w3.org/2000/svg">
<g id="&#230;&#151;&#165;&#229;&#142;&#134;&#229;&#155;&#190;&#230;&#160;&#135;/&#229;&#183;&#166;&#229;&#143;&#140;">
<rect width="12" height="12" fill="white" fill-opacity="0.01"/>
<path id="&#229;&#189;&#162;&#231;&#138;&#182;" fill-rule="evenodd" clip-rule="evenodd" d="M3.1981 6L6.30825 2.02617C6.3563 1.96523 6.31294 1.875 6.23442 1.875H5.32856C5.27114 1.875 5.21606 1.90195 5.18091 1.94648L2.18911 5.76914C2.08247 5.90508 2.08247 6.09609 2.18911 6.23203L5.18091 10.0535C5.21606 10.0992 5.27114 10.125 5.32856 10.125H6.23442C6.31294 10.125 6.3563 10.0348 6.30825 9.97383L3.1981 6ZM6.7606 6L9.87075 2.02617C9.9188 1.96523 9.87544 1.875 9.79692 1.875H8.89106C8.83364 1.875 8.77856 1.90195 8.74341 1.94648L5.75161 5.76914C5.64497 5.90508 5.64497 6.09609 5.75161 6.23203L8.74341 10.0535C8.77856 10.0992 8.83364 10.125 8.89106 10.125H9.79692C9.87544 10.125 9.9188 10.0348 9.87075 9.97383L6.7606 6Z" fill="white" fill-opacity="0.5"/>
</g>
</svg>
